<?xml version="1.0" standalone="no"?><!DOCTYPE svg PUBLIC "-//W3C//DTD SVG 1.1//EN" "http://www.w3.org/Graphics/SVG/1.1/DTD/svg11.dtd"><svg t="1578389241807" class="icon" viewBox="0 0 1024 1024" version="1.1" xmlns="http://www.w3.org/2000/svg" p-id="4823" xmlns:xlink="http://www.w3.org/1999/xlink" width="200" height="200"><defs><style type="text/css"></style></defs><path d="M835.4816 249.6512c-24.1664-7.9872-48.128-36.6592-64.1024-52.6336s-29.696-81.92-29.696-81.92l-229.7856-86.016L282.112 114.688s-13.7216 66.3552-29.696 81.92-39.936 45.056-63.8976 53.0432l-22.9376 6.7584s0 312.1152 151.9616 463.0528 194.3552 148.48 194.3552 148.48 43.4176 3.4816 194.3552-148.48 151.9616-463.0528 151.9616-463.0528z" fill="#3D3179" p-id="4824"></path><path d="M948.5312 619.3152l31.9488-31.9488c31.9488-31.9488 15.9744-137.216 15.9744-137.216h-25.1904v-47.9232c0-47.9232-38.7072-85.8112-47.9232-85.8112A143.36 143.36 0 0 0 883.6096 339.3536l-10.24 15.9744c-13.9264 112.0256-51.2 281.1904-153.6 382.976-147.456 147.456-198.8608 157.696-206.848 158.9248h-2.2528c-7.9872-1.2288-59.392-11.4688-206.848-158.9248-102.4-102.4-139.4688-270.9504-154.2144-382.976l-10.4448-14.7456s-29.696-24.1664-38.7072-24.1664-47.9232 37.888-47.9232 85.8112V450.56H27.5456s-16.1792 105.2672 15.9744 137.216l31.9488 31.9488s-35.4304-10.24-45.6704 0 6.7584 80.0768 68.4032 141.7216a454.2464 454.2464 0 0 0 100.5568 81.92 209.5104 209.5104 0 0 0-76.3904 11.264l-24.1664 13.7216s8.192 77.824 131.4816 104.0384c94.8224 20.48 198.8608 42.3936 248.0128 50.3808h11.4688l13.7216 1.2288 15.9744-1.2288c10.24 5.7344 151.9616-26.2144 275.2512-51.4048s131.4816-104.0384 131.4816-104.0384l-23.9616-13.7216a213.1968 213.1968 0 0 0-76.5952-11.264 448.512 448.512 0 0 0 100.5568-81.92c61.44-61.44 78.848-131.2768 68.608-141.7216s-45.6704 0.6144-45.6704 0.6144z" fill="#E58D2E" p-id="4825"></path><path d="M856.1664 233.6768c-24.9856-6.7584-50.176-37.4784-67.1744-54.6816s-31.9488-87.8592-31.9488-87.8592L513.1264 0l-245.76 91.136s-14.7456 70.8608-31.9488 87.8592S193.8432 225.28 168.8576 233.6768l-25.1904 7.9872a1043.0464 1043.0464 0 0 0 7.9872 112.8448C166.8096 466.3296 204.0832 634.88 305.664 737.28c147.0464 147.0464 198.2464 157.2864 206.2336 158.5152H514.9696c7.9872-1.2288 59.392-11.4688 206.4384-158.5152 102.4-101.376 139.0592-270.1312 153.8048-381.952a1043.0464 1043.0464 0 0 0 7.9872-112.8448l-24.9856-7.9872z m-12.0832 163.84c-16.1792 102.4-54.0672 236.7488-139.0592 320.1024l-16.1792 15.9744c-4.5056-4.5056-10.24-7.9872-11.4688-5.7344s-10.24 2.2528-10.24 2.2528v-16.5888h-5.9392v5.9392h5.9392v-5.9392h-11.8784v5.9392h5.9392v-5.9392h-5.9392v5.9392-11.6736h-5.7344v5.7344H637.8496v-5.7344h5.7344v5.7344H637.8496v-5.7344h-5.9392v25.6l-3.4816 3.6864-4.7104-3.6864-1.2288-1.024-5.12-1.2288a49.9712 49.9712 0 0 0-27.0336 0 17.2032 17.2032 0 0 1-16.384 2.2528V696.32h-5.7344v5.7344H555.9296V696.32h5.7344v5.7344H555.9296v-11.8784h-5.9392v6.144h-5.9392v-6.144h-5.7344v6.144h-5.9392v-6.144h-11.6736v6.144H514.9696v-6.144h-5.9392v6.144h-5.9392v-6.144h-5.7344v6.144h-11.6736v-6.144h-5.9392v36.2496a229.1712 229.1712 0 0 1-30.72 2.048c-2.4576-2.048-8.3968 0-8.3968 0l-15.36 3.4816-2.4576 10.8544h-4.7104l-14.336-10.8544a14.9504 14.9504 0 0 0-10.6496-4.5056l-1.024-1.024v-24.576h-5.9392V696.32v5.7344h-5.9392V696.32h-5.7344v5.7344V696.32h-5.9392v-6.144h-11.6736v6.144H351.1296v-6.144h-5.9392V716.8a48.128 48.128 0 0 0-17.2032-7.9872c-4.7104 0-8.192 7.9872-9.216 12.4928l-4.7104-4.5056A600.6784 600.6784 0 0 1 175.0016 397.5168a962.56 962.56 0 0 1-13.7216-143.36l22.9376-7.9872c23.552-6.3488 48.3328-34.816 64.512-50.9952s29.9008-81.92 29.9008-81.92l231.0144-86.016 232.0384 85.8112s12.6976 66.1504 28.8768 81.92 40.96 44.6464 64.3072 52.6336l22.9376 6.9632a949.8624 949.8624 0 0 1-13.7216 142.9504z" fill="#FAAA46" p-id="4826"></path><path d="M503.9104 16.9984a7.9872 7.9872 0 0 0 7.9872 7.9872 7.7824 7.7824 0 0 0 7.9872-7.9872 7.9872 7.9872 0 0 0-7.9872-7.9872 8.192 8.192 0 0 0-7.9872 7.9872zM479.9488 25.8048a8.192 8.192 0 0 0 16.1792 0 8.192 8.192 0 0 0-16.1792 0zM456.192 34.6112a8.192 8.192 0 0 0 16.1792 0 8.192 8.192 0 0 0-16.1792 0zM433.0496 43.4176a7.7824 7.7824 0 0 0 7.9872 7.9872 7.9872 7.9872 0 0 0 7.9872-7.9872 8.192 8.192 0 0 0-7.9872-7.9872 7.9872 7.9872 0 0 0-7.9872 7.9872zM408.4736 52.224a8.192 8.192 0 0 0 7.9872 7.9872 8.192 8.192 0 0 0 0-16.1792 8.192 8.192 0 0 0-7.9872 8.192zM384.7168 61.44a8.192 8.192 0 0 0 7.9872 7.9872 7.9872 7.9872 0 0 0 7.9872-7.9872 7.9872 7.9872 0 0 0-7.9872-8.192 8.192 8.192 0 0 0-7.9872 8.192zM360.7552 69.8368a8.192 8.192 0 0 0 16.1792 0 8.192 8.192 0 1 0-16.1792 0zM336.9984 78.4384a8.192 8.192 0 0 0 7.9872 8.192 8.192 8.192 0 0 0 0-16.1792 8.192 8.192 0 0 0-7.9872 7.9872zM313.2416 87.2448a7.9872 7.9872 0 0 0 7.9872 8.192 8.192 8.192 0 0 0 0-16.1792 7.9872 7.9872 0 0 0-7.9872 7.9872zM289.6896 96.0512a7.9872 7.9872 0 0 0 7.9872 7.9872 7.7824 7.7824 0 0 0 7.9872-7.9872 7.9872 7.9872 0 0 0-7.9872-7.9872 8.192 8.192 0 0 0-7.9872 7.9872zM266.3424 106.2912a7.9872 7.9872 0 0 0 15.9744 0 7.9872 7.9872 0 0 0-15.9744 0zM218.8288 206.848a7.9872 7.9872 0 0 0 7.9872 7.9872 8.192 8.192 0 0 0 7.9872-7.9872 7.9872 7.9872 0 0 0-7.9872-7.9872 7.7824 7.7824 0 0 0-7.9872 7.9872zM238.6944 184.32a7.7824 7.7824 0 0 0 7.9872 7.9872 7.9872 7.9872 0 0 0 0-15.9744 7.7824 7.7824 0 0 0-7.9872 7.9872zM171.3152 242.0736a7.7824 7.7824 0 0 0 7.9872 7.9872 7.9872 7.9872 0 0 0 7.9872-7.9872 8.192 8.192 0 0 0-7.9872-7.9872 7.9872 7.9872 0 0 0-7.9872 7.9872zM146.3296 250.88a7.9872 7.9872 0 1 0 7.9872-7.9872 7.7824 7.7824 0 0 0-7.9872 7.9872zM197.3248 226.7136a7.7824 7.7824 0 0 0 7.9872 7.9872 7.9872 7.9872 0 0 0 7.9872-7.9872 8.192 8.192 0 0 0-7.9872-7.9872 7.9872 7.9872 0 0 0-7.9872 7.9872zM251.1872 157.0816a7.9872 7.9872 0 0 0 7.9872 7.9872 7.7824 7.7824 0 0 0 7.9872-7.9872 7.9872 7.9872 0 0 0-7.9872-7.9872 8.192 8.192 0 0 0-7.9872 7.9872zM259.1744 131.6864a7.9872 7.9872 0 0 0 7.9872 7.9872 7.7824 7.7824 0 0 0 7.9872-7.9872 7.7824 7.7824 0 0 0-7.9872-8.8064 7.9872 7.9872 0 0 0-7.9872 8.8064zM527.872 25.8048a7.7824 7.7824 0 0 0 7.9872 7.9872 7.9872 7.9872 0 0 0 7.9872-7.9872 8.192 8.192 0 0 0-8.3968-7.9872 7.9872 7.9872 0 0 0-7.5776 7.9872zM551.6288 34.6112a7.7824 7.7824 0 0 0 7.9872 7.9872 7.9872 7.9872 0 0 0 7.9872-7.9872 8.192 8.192 0 0 0-7.9872-7.9872 7.9872 7.9872 0 0 0-7.9872 7.9872zM576.4096 43.4176a8.192 8.192 0 0 0 16.1792 0 8.192 8.192 0 0 0-16.1792 0zM599.3472 52.224a8.192 8.192 0 0 0 7.9872 7.9872 8.192 8.192 0 0 0 0-16.1792 8.192 8.192 0 0 0-7.9872 8.192zM623.104 61.44a8.192 8.192 0 0 0 7.9872 7.9872 7.9872 7.9872 0 0 0 7.9872-7.9872 7.9872 7.9872 0 0 0-7.9872-8.192 8.192 8.192 0 0 0-7.9872 8.192zM647.0656 69.8368a7.9872 7.9872 0 0 0 7.9872 7.9872 8.192 8.192 0 0 0 7.9872-7.9872 8.192 8.192 0 0 0-7.9872-8.192 7.9872 7.9872 0 0 0-7.9872 8.192zM670.8224 78.4384a7.9872 7.9872 0 1 0 7.9872-7.9872 7.9872 7.9872 0 0 0-7.9872 7.9872zM694.784 87.2448a7.9872 7.9872 0 0 0 7.9872 8.192 8.192 8.192 0 0 0 0-16.1792 7.9872 7.9872 0 0 0-7.9872 7.9872zM718.5408 96.0512a7.9872 7.9872 0 0 0 7.9872 7.9872 7.7824 7.7824 0 0 0 7.9872-7.9872 7.9872 7.9872 0 0 0-7.9872-7.9872 8.192 8.192 0 0 0-7.9872 7.9872zM741.4784 106.2912a8.192 8.192 0 0 0 16.1792 0 8.192 8.192 0 0 0-16.1792 0zM789.1968 206.848a7.9872 7.9872 0 0 0 7.9872 7.9872 8.192 8.192 0 0 0 7.9872-7.9872 7.9872 7.9872 0 0 0-7.9872-7.9872 7.7824 7.7824 0 0 0-7.9872 7.9872zM769.1264 184.32a8.192 8.192 0 1 0 8.192-7.9872 7.9872 7.9872 0 0 0-8.192 7.9872zM836.7104 242.0736a7.7824 7.7824 0 0 0 7.9872 7.9872 7.9872 7.9872 0 0 0 7.9872-7.9872 8.192 8.192 0 0 0-7.9872-7.9872 7.9872 7.9872 0 0 0-7.9872 7.9872zM863.1296 250.88a8.192 8.192 0 1 0 7.9872-7.9872 7.9872 7.9872 0 0 0-7.9872 7.9872zM810.496 226.7136a8.192 8.192 0 0 0 16.1792 0 8.192 8.192 0 0 0-16.1792 0zM756.6336 157.0816a7.9872 7.9872 0 0 0 7.9872 7.9872 7.7824 7.7824 0 0 0 7.9872-7.9872 7.9872 7.9872 0 0 0-7.9872-7.9872 8.192 8.192 0 0 0-7.9872 7.9872zM748.6464 131.6864a7.9872 7.9872 0 0 0 15.9744 0 7.9872 7.9872 0 0 0-15.9744 0z" fill="#D48931" p-id="4827"></path><path d="M759.5008 340.7872a217.2928 217.2928 0 0 0-4.5056-37.888 234.7008 234.7008 0 0 0-116.1216-155.4432 240.4352 240.4352 0 0 0-109.1584-30.72h-30.72a249.4464 249.4464 0 0 0-163.84 76.5952A231.424 231.424 0 0 0 269.2096 348.16v29.696l2.2528 17.2032a237.7728 237.7728 0 0 0 64.512 133.7344l1.024 1.024 2.2528 2.4576v-2.048l-11.6736 61.44-2.2528 15.1552 6.9632 2.2528c5.9392 1.2288 5.9392 1.2288 5.9392 5.9392s1.024 2.2528 2.2528 2.2528l12.9024 2.4576c2.2528 1.024 3.4816 1.024 3.4816 4.7104v3.8912l20.48 2.2528c2.2528 0 2.2528 1.024 2.2528 2.2528l1.2288 5.7344h37.4784l1.2288-13.7216 1.024-2.2528 5.9392-3.4816v8.8064s0 2.2528 1.4336 2.2528l10.24 1.024 1.2288 2.2528 1.024 5.12h20.48l2.2528-1.6384a7.168 7.168 0 0 1 4.5056-4.3008h2.2528c2.2528 0 4.7104 2.048 4.7104 4.3008l2.2528 1.6384h21.7088l3.4816-1.6384c0-2.2528 1.024-2.2528 2.2528-4.3008h12.4928c1.2288 2.048 2.2528 2.048 3.4816 4.3008l2.2528 1.2288q12.0832 0 23.9616-1.2288c0-2.2528 2.2528-3.4816 3.4816-4.3008h2.2528a9.6256 9.6256 0 0 1 6.9632 4.3008l2.2528 1.6384h20.48v-7.3728l14.1312-1.024v-10.24l5.7344 4.5056v2.2528l1.8432 17.6128h36.6592s1.4336-10.4448 2.2528-13.1072l15.9744-4.3008h7.7824v-8.192l10.24-1.2288c5.7344-1.024 5.7344-1.024 5.7344-6.7584l2.2528-2.2528 10.6496-2.2528-12.4928-61.44-1.4336-12.288a238.7968 238.7968 0 0 0 78.2336-155.4432l1.2288-14.9504v-18.2272z m-208.6912 179.8144a46.6944 46.6944 0 0 0-39.936-18.432 48.128 48.128 0 0 0-40.96 18.432A168.5504 168.5504 0 0 1 514.9696 189.0304a169.3696 169.3696 0 0 1 170.1888 168.1408 173.056 173.056 0 0 1-134.3488 163.4304z" fill="#EF9C48" p-id="4828"></path><path d="M381.6448 638.1568l-1.2288-4.5056c0-2.2528 0-3.4816-2.2528-3.4816l-21.7088-2.2528 1.2288-5.7344c0-2.2528-1.2288-3.2768-3.4816-3.2768l-13.7216-2.4576-1.024-2.048c-1.2288-5.7344-1.2288-5.7344-5.7344-6.7584l-6.9632-1.2288 2.2528-14.7456 11.4688-61.44 2.2528-5.7344 15.9744-29.696h2.4576A236.3392 236.3392 0 0 0 476.4672 552.96a15.9744 15.9744 0 0 0 13.7216-3.4816h-4.5056a26.0096 26.0096 0 0 1 22.7328-18.432 28.0576 28.0576 0 0 1 27.0336 15.7696l-2.4576 1.2288 4.7104 2.2528h14.1312a220.5696 220.5696 0 0 0 109.1584-51.4048l4.5056-3.2768 5.5296 8.8064 11.264 22.3232 3.2768 13.5168 11.264 60.416v3.2768l-9.0112 2.2528c-2.2528 0-2.2528 1.2288-2.2528 2.2528 0 5.7344 0 5.7344-5.5296 5.7344l-10.0352 2.048c-2.2528 0-2.2528 1.2288-2.2528 2.2528v7.9872h-7.7824l-15.9744 5.5296v6.144h-39.5264l-1.024-11.8784-1.2288-2.2528-5.3248-4.096v10.24l-15.1552 1.2288-1.2288 6.144h-20.48a64.9216 64.9216 0 0 0-7.9872-5.5296h-1.2288a13.1072 13.1072 0 0 0-4.5056 4.3008c0 2.2528-1.2288 2.2528-2.4576 2.2528l-23.9616-2.2528-2.2528-4.3008h-13.7216l-2.2528 4.3008-2.2528 1.6384H475.4432a20.48 20.48 0 0 0-4.7104-5.5296h-2.2528l-5.7344 4.3008-2.2528 1.6384h-19.456l-1.024-5.12-2.4576-1.024-10.24-1.2288s-2.2528 0 0-2.2528v-7.9872l-7.7824 3.4816v2.2528l-1.2288 13.7216z m227.5328-58.1632v57.5488h3.8912l24.1664-1.024a2.8672 2.8672 0 0 0 3.2768-3.2768l1.2288-3.2768 1.024-1.2288 13.1072-2.048c5.5296-1.024 5.5296-1.024 6.7584-6.5536l1.024-2.048 10.8544-2.2528a7.168 7.168 0 0 0 6.7584-5.3248l2.048-2.2528 7.7824-1.024v-2.2528l-14.336-68.1984c0-2.2528-1.024-3.2768-3.2768-4.3008v6.3488c3.6864 20.48 7.168 41.984 11.0592 62.8736l-12.0832 1.024-7.7824-48.7424-2.048-5.3248a3.6864 3.6864 0 0 0-2.2528 5.3248l2.2528 16.384 4.3008 36.864 2.2528 1.024h4.3008v1.4336l-21.504 2.2528-4.5056-54.8864c-4.7104 2.2528-4.7104 2.2528-4.7104 6.9632l2.4576 39.936 1.024 10.24h9.6256v5.7344h-23.9616v-4.3008l-1.2288-36.0448-2.2528-6.144h-2.2528l-2.2528 7.9872 2.048 36.6592v8.192h5.9392v5.7344h-18.2272l-1.2288-1.4336c-1.2288-16.1792-2.2528-33.792-3.2768-50.5856z m-270.9504 18.2272l1.2288-2.2528L351.1296 532.48v-4.096l-3.2768 4.3008-11.6736 61.44v7.3728l4.096 1.2288a6.9632 6.9632 0 0 1 6.5536 5.3248c0 2.048 0 2.048 2.048 3.072l9.6256 2.2528c5.3248 1.024 5.3248 1.024 5.3248 5.12v4.5056l1.6384 2.2528 13.7216 1.2288c4.7104 0 6.9632 2.2528 6.9632 6.7584l2.2528 5.12h28.0576v-54.8864l-1.8432-3.4816c-2.2528 0-3.2768 1.024-3.2768 3.4816l-1.2288 38.7072 1.2288 9.4208H392.0896v-5.7344h5.7344v-4.7104l1.2288-42.1888-2.4576-10.4448-2.2528 9.216-1.2288 29.2864-1.024 12.9024h-23.552V614.4h5.9392l5.9392-53.6576-1.024-2.2528-4.5056-2.2528-3.2768 55.7056-22.9376-3.4816 1.2288-6.144h7.9872l6.7584-54.8864a6.3488 6.3488 0 0 0-2.2528-5.7344l-2.2528 5.7344-5.7344 38.912-2.2528 14.7456z m235.9296 33.3824h-8.6016l-2.6624-2.4576-1.2288-14.7456v-3.6864a4.5056 4.5056 0 0 0-2.4576-6.144l2.4576-2.4576h-2.2528l-3.4816 3.4816v20.48h-11.8784v-3.6864s0-4.5056-3.4816-4.5056l-1.2288 8.192h-12.4928l-1.2288-4.7104c-2.2528-1.2288-3.4816 0-3.4816 2.2528l-1.024 3.4816a29.0816 29.0816 0 0 0-3.4816 4.7104h-10.24a12.6976 12.6976 0 0 1-6.9632-8.192c-1.024-2.2528-2.2528-3.4816-3.2768-2.2528l-2.4576 10.4448h-12.4928v-13.9264c-4.7104 1.2288-4.7104 1.2288-7.168 4.5056v3.6864h-5.9392v-20.48l-5.3248-3.4816-2.2528 1.2288 2.2528 2.2528-2.2528 1.2288a168.96 168.96 0 0 1-1.2288 24.1664h-8.8064v-21.2992l-2.4576-4.5056c-2.2528 2.2528-3.4816 3.2768-3.2768 6.7584v10.24l-1.4336-2.2528h-6.7584c-2.2528 4.5056-2.2528 3.4816-2.2528 2.2528L433.0496 616.448c-4.5056 2.4576-2.2528 9.4208-2.2528 9.4208h12.4928l3.4816 11.6736h12.4928l1.2288-3.8912a9.0112 9.0112 0 0 1 7.9872-2.048h10.0352a20.48 20.48 0 0 0 4.7104 5.12h12.4928a31.1296 31.1296 0 0 0 3.4816-5.12l2.2528-6.5536h18.2272s3.4816 5.5296 4.7104 7.7824l1.024 1.2288h17.2032a10.0352 10.0352 0 0 1 7.9872-3.2768h9.8304l2.2528 5.12H576.4096l2.2528-5.12 1.024-12.4928h12.6976s2.2528-1.024-2.2528-3.4816l-1.2288 5.7344-1.024 3.6864h-8.192v-13.7216l-3.2768-5.7344c-2.6624 2.4576-1.2288 4.9152-1.2288 8.6016zM357.6832 514.048c-3.4816 3.2768-3.4816 5.7344-1.2288 10.24a92.3648 92.3648 0 0 0 18.432 25.1904 168.7552 168.7552 0 0 0 40.96 27.4432 109.3632 109.3632 0 0 0 45.8752 10.24l14.7456-2.2528h-11.4688a81.92 81.92 0 0 1-57.1392-24.1664 117.1456 117.1456 0 0 1-21.7088-35.4304 8.6016 8.6016 0 0 0-5.7344-5.5296A81.92 81.92 0 0 0 412.5696 569.9584a13.9264 13.9264 0 0 1-10.4448-4.5056l-13.7216-12.4928a117.3504 117.3504 0 0 1-19.2512-37.6832c-1.2288-4.5056-1.2288-4.5056-5.7344-4.5056a126.3616 126.3616 0 0 0 22.7328 44.6464 79.872 79.872 0 0 1-28.4672-41.3696z m186.368 69.632v1.2288h1.2288a71.4752 71.4752 0 0 0 37.6832-1.2288A134.7584 134.7584 0 0 0 637.8496 556.2368a88.6784 88.6784 0 0 0 26.2144-33.1776c2.4576-3.2768 1.2288-5.7344-1.024-9.0112l-5.7344 11.264a90.112 90.112 0 0 1-15.9744 24.1664l-7.9872 5.7344a126.3616 126.3616 0 0 0 22.7328-44.6464c-4.5056 0-4.5056 0-5.7344 3.4816A100.9664 100.9664 0 0 1 617.3696 565.4528a10.0352 10.0352 0 0 1-9.216 3.4816 86.4256 86.4256 0 0 0 31.9488-49.152c-3.2768 1.024-4.5056 3.2768-6.7584 5.5296l-9.216 20.48a79.872 79.872 0 0 1-80.0768 37.888z m-153.1904-57.5488l1.2288 1.2288a97.8944 97.8944 0 0 0 16.9984 25.6 66.7648 66.7648 0 0 0 34.4064 20.48 68.8128 68.8128 0 0 0 39.936-3.2768l7.9872-2.4576v-0.4096h-2.2528l-18.2272 3.4816a74.9568 74.9568 0 0 1-46.8992-12.6976 111.4112 111.4112 0 0 1-29.696-30.72c0-2.4576-1.2288-2.4576-3.4816-1.2288z m237.568 2.4576c-1.024-1.2288-2.2528-1.2288-3.2768 1.024a108.3392 108.3392 0 0 1-17.2032 21.7088 71.4752 71.4752 0 0 1-59.392 22.1184l-17.2032-3.2768c-1.2288 0-2.2528-1.2288-3.4816 1.024l24.1664 6.9632a63.488 63.488 0 0 0 49.152-12.6976 93.7984 93.7984 0 0 0 19.2512-22.7328z m-166.7072 68.4032l10.24 11.264h2.048s4.7104-3.072 6.9632-2.048l-2.2528 4.5056 13.7216 4.7104 4.5056-1.2288c2.2528-2.2528 3.4816-2.2528 5.7344 1.2288l3.4816-1.2288H514.9696q5.3248 3.4816 6.7584 0c1.2288-2.2528 3.4816 0 4.7104 0s3.2768 3.2768 4.5056 2.2528l13.7216-4.7104-1.2288-4.5056c2.4576-1.024 3.4816-3.4816 5.7344 2.048h2.4576l10.24-10.0352v-2.2528H555.9296l-5.12 4.9152c-2.4576-1.2288-6.3488-2.4576-7.5776-1.2288a4.7104 4.7104 0 0 0-2.4576 6.3488l-1.2288 2.4576-7.5776 3.6864c-1.2288-1.2288-2.4576-4.9152-4.9152-4.9152s-3.8912 0-6.3488 1.2288-4.9152 0-4.9152 2.4576-0.8192 2.4576-4.3008 2.4576h-3.072s-3.2768 0-3.2768-3.4816-1.2288-2.2528-3.4816-2.2528l-2.2528-1.024c-3.4816-1.2288-5.7344 0-7.9872 3.2768l-1.2288 1.2288-7.9872-3.4816c1.2288-3.2768 2.2528-5.7344 0-7.9872a10.6496 10.6496 0 0 0-8.192 1.2288l-3.2768-3.4816c-1.2288-1.2288-2.2528-3.4816-3.4816-1.2288s-4.5056-3.2768-5.5296-0.2048z m48.9472-58.9824h-3.4816a17.6128 17.6128 0 0 0-13.7216 11.4688 16.9984 16.9984 0 0 0 33.1776 7.9872v-7.9872a15.9744 15.9744 0 0 0-15.9744-11.4688z m30.9248 50.9952l-3.2768-2.2528c-2.4576 0-3.4816 0-5.7344 1.2288a42.3936 42.3936 0 0 1-36.6592 4.5056l-13.7216-7.9872-4.5056 3.4816a47.104 47.104 0 0 0 63.8976 1.024z m-122.88 26.8288c1.2288 2.2528 3.4816 2.2528 5.7344 1.2288l33.1776-19.456 2.2528-2.2528-1.6384-1.4336-4.7104-2.048-3.4816-1.2288h-3.2768l-19.456 12.6976-7.9872 5.7344c0 3.2768 2.2528 3.2768 4.5056 1.024l23.9616-14.7456c2.2528-1.2288 3.4816-1.2288 5.7344 1.024z m184.32 0l-33.1776-19.456a2.6624 2.6624 0 0 1 4.5056-1.024l23.9616 15.9744c3.4816 0 4.7104 0 4.7104-2.2528l-26.624-18.432h-1.2288l-5.7344 1.2288a7.5776 7.5776 0 0 0-6.7584 3.4816l3.2768 2.2528 32.1536 19.456c1.8432 2.2528 3.072 1.024 5.3248-1.2288z m-71.68-50.7904a67.584 67.584 0 0 0 47.9232-2.2528 77.0048 77.0048 0 0 0 29.9008-23.9616c-3.4816 1.024-6.9632 1.024-9.216 4.5056l-9.216 7.9872a67.584 67.584 0 0 1-54.8864 12.6976z m-39.936 0l-6.9632-1.024a66.1504 66.1504 0 0 1-40.96-5.7344 76.5952 76.5952 0 0 1-22.7328-15.9744c-1.2288-2.4576-4.7104-2.4576-6.9632-3.4816a69.4272 69.4272 0 0 0 77.6192 26.2144z m-1.2288 14.9504a33.1776 33.1776 0 0 0 36.6592 2.2528l-7.9872-8.8064h-1.2288a20.48 20.48 0 0 1-19.456 5.9392h-2.2528z m81.92-24.3712h-1.8432c-11.4688 0-22.9376 2.6624-36.6592 1.4336 0 1.2288 0 2.2528 2.2528 4.3008h12.6976c6.7584-2.048 12.4928-3.072 18.2272-5.3248z m-120.832-2.6624c1.2288 2.2528 3.4816 3.4816 7.9872 5.7344a73.1136 73.1136 0 0 0 27.4432 0c2.4576 0 1.2288 0 1.2288-2.2528a133.12 133.12 0 0 1-36.6592-3.4816z m130.4576 35.4304l20.48 13.7216c1.2288-2.2528 1.2288-3.4816-1.024-4.7104l-14.9504-10.24c-2.2528-1.4336-3.4816-1.4336-4.5056 0.8192z m-162.4064 13.7216l21.7088-13.7216c-2.2528-2.2528-3.4816-2.2528-4.5056-1.2288l-15.9744 10.24a3.6864 3.6864 0 0 0-1.2288 4.3008z m184.32-11.4688l-10.24-5.7344-2.2528 1.2288v2.2528l6.9632 5.7344z m-182.0672 3.2768l6.9632-5.7344v-2.2528l-2.2528-1.2288-9.0112 5.7344z" fill="#DB0303" p-id="4829"></path><path d="M531.5584 116.736h9.8304a240.8448 240.8448 0 0 1 161.792 81.92A229.9904 229.9904 0 0 1 760.7296 339.5584v20.48l-1.2288 14.9504a240.64 240.64 0 0 1-70.0416 148.6848l-1.024 2.2528-2.4576-5.7344 1.2288-2.2528A230.6048 230.6048 0 0 0 526.4384 122.88a239.616 239.616 0 0 0-251.2896 226.7136v17.408a235.1104 235.1104 0 0 0 64.3072 154.2144v3.4816l-1.024 3.4816-10.4448-11.4688A238.1824 238.1824 0 0 1 269.2096 377.2416V348.16A243.0976 243.0976 0 0 1 502.8864 117.76h3.2768z" fill="#D48931" p-id="4830"></path><path d="M568.0128 532.48l-5.7344-10.24-5.7344 3.4816-4.5056-5.7344-1.2288-2.2528 3.4816-4.7104-7.9872-6.7584-3.4816 4.5056-7.3728-3.8912 3.4816-5.7344-10.4448-4.7104-2.2528 4.7104-1.024 1.024-10.24-1.024v-4.096h-11.8784v1.8432c2.048 2.2528 2.048 2.2528 0 2.2528l-5.7344 1.024a1.4336 1.4336 0 0 1-2.4576-1.024l-2.2528-5.7344-10.24 5.7344 3.4816 5.7344-6.9632 4.5056-4.9152-5.7344-7.9872 6.7584 3.4816 5.7344-1.2288 1.2288-4.5056 5.7344-5.7344-2.2528L453.5296 532.48l6.7584 3.4816-2.2528 6.9632 7.9872 1.024a71.2704 71.2704 0 0 1 13.7216-21.7088 44.8512 44.8512 0 0 1 28.672-11.4688 43.6224 43.6224 0 0 1 34.2016 11.4688 62.8736 62.8736 0 0 1 13.7216 20.48l9.216-2.4576-2.2528-4.5056z" fill="#D48931" p-id="4831"></path><path d="M533.6064 525.1072a40.96 40.96 0 0 0-46.8992 0 30.5152 30.5152 0 0 0-14.7456 21.7088l6.7584 2.4576a34.816 34.816 0 0 1 24.1664-22.9376h14.7456a34.816 34.816 0 0 1 23.9616 21.7088l6.9632-2.2528a36.0448 36.0448 0 0 0-14.9504-20.6848z m-252.7232-132.5056v-1.2288l-1.2288-7.9872 6.9632-5.7344 49.152-44.6464 1.024-1.024-1.024 10.24-2.4576 1.2288-50.176 47.9232z m465.3056-2.4576l-9.0112-7.9872-43.4176-42.1888-2.4576-10.24h1.2288l53.6576 48.128a3.2768 3.2768 0 0 1 1.2288 4.5056z m-461.824 17.2032l-2.2528-7.9872v-2.2528l45.6704-42.3936 4.7104-3.2768v7.9872l-1.2288 2.2528L289.6896 401.6128z m459.9808-2.2528l-17.2032-17.2032L699.2896 361.6768c-2.4576-2.2528-3.4816-3.4816-2.4576-6.9632V348.16l2.4576 1.2288 45.6704 44.6464c2.2528 0 2.2528 2.2528 0 3.2768z m-410.8288 98.304l-4.3008-6.3488v-1.024L351.1296 445.0304l5.3248 6.3488v2.048l-23.3472 48.9472z m29.2864-50.5856l1.024 1.024 4.5056 6.7584-3.2768 6.5536L344.9856 512l-1.2288 1.2288-4.5056-5.5296v-2.2528l23.552-52.4288z m310.272-13.5168l12.4928 31.744c3.4816 9.216 6.7584 18.432 10.4448 27.4432l-4.7104 4.5056v-2.2528L667.3408 450.56l1.2288-3.4816z m9.216 72.704l-3.4816-7.5776-20.48-45.6704 1.024-3.4816 3.4816-5.5296 3.4816 6.7584 20.48 46.8992-1.2288 3.4816zM291.328 289.5872c2.2528 1.2288 3.4816 2.2528 2.2528 5.7344a225.28 225.28 0 0 0-9.0112 73.3184c0 2.2528-1.2288 3.4816-3.4816 4.7104a252.5184 252.5184 0 0 1 10.24-83.7632zM738.2016 286.72a204.8 204.8 0 0 1 7.9872 83.3536 6.7584 6.7584 0 0 1-2.2528-5.5296 224.0512 224.0512 0 0 0-7.9872-73.3184zM351.1296 274.6368c-3.4816-12.4928-3.4816-12.4928-7.9872-11.6736h-1.2288c-2.2528 2.6624-3.2768 1.4336-2.2528 0l3.4816-5.7344 6.7584-5.7344 3.4816-1.024 2.2528 1.024a20.48 20.48 0 0 1 0 8.192v4.5056l5.3248-1.2288c2.2528 0 2.2528 0 2.2528 2.2528v5.7344c-1.2288 2.4576-3.4816 2.4576-5.7344-1.2288h-1.2288l-2.2528 3.6864c-1.2288 0-3.4816 0-4.5056-1.2288s1.024 3.2768 1.024 3.2768z m327.68-10.24v4.7104c0 2.2528 0 3.4816-3.4816 2.2528l-2.2528-2.4576h-2.2528c-2.2528 2.4576-4.5056 2.4576-4.5056 0l-2.2528-6.9632 2.2528-1.024 7.9872 1.024-3.6864-4.5056v-7.9872l4.7104-1.2288 4.7104 3.4816 3.2768 2.2528 4.9152 5.7344v3.072h-3.6864c-1.2288-1.6384-3.4816-0.6144-4.5056 1.6384z m-380.5184 33.1776c1.024 1.2288 2.2528 2.2528 1.024 4.7104a209.3056 209.3056 0 0 0-6.7584 52.4288v6.9632l-3.4816 3.4816a188.8256 188.8256 0 0 1 9.216-67.584z m433.152-2.2528a222.6176 222.6176 0 0 1 6.7584 67.3792c-2.2528 0-3.4816-1.024-3.4816-4.5056a256.2048 256.2048 0 0 0-5.5296-58.368c-1.2288-2.2528 1.024-2.2528 2.2528-4.5056z m-433.152 61.44a200.9088 200.9088 0 0 1 10.24-65.1264h3.4816l-3.4816 10.24a179.2 179.2 0 0 0-6.9632 50.3808c0 2.8672-1.024 2.8672-3.2768 5.12zM719.7696 293.0688l2.2528-1.2288a216.8832 216.8832 0 0 1 9.0112 65.3312 4.9152 4.9152 0 0 1-3.2768-4.7104 190.8736 190.8736 0 0 0-7.9872-57.1392z m-412.4672 59.8016a223.0272 223.0272 0 0 1 10.24-54.6816h2.4576l-3.4816 15.9744A178.176 178.176 0 0 0 310.1696 348.16c0 3.6864 0 3.6864-2.8672 4.7104z m402.432-57.5488l3.2768-1.024a219.3408 219.3408 0 0 1 7.9872 53.8624c-2.2528 0-3.2768-1.024-3.2768-4.5056a161.5872 161.5872 0 0 0-6.9632-46.8992z m-392.6016-61.44l4.5056 10.24a7.168 7.168 0 0 1 0 9.216l-3.4816 3.4816h-2.2528v-4.7104l-2.2528-2.2528c-2.2528-1.2288-1.2288-3.4816-1.2288-4.5056a20.48 20.48 0 0 1 4.7104-11.0592zM303.8208 450.56l6.9632 13.7216 11.4688 21.7088c2.2528 2.2528 1.024 3.2768 0 5.5296a189.6448 189.6448 0 0 1-21.7088-40.96z m418.4064-2.4576l3.4816 1.2288a193.9456 193.9456 0 0 1-22.9376 38.912c-2.2528-2.2528-2.2528-3.4816 0-5.7344a203.3664 203.3664 0 0 0 19.456-35.2256z m-6.7584-212.5824a37.2736 37.2736 0 0 1 4.5056 13.7216l-1.2288 1.2288c-2.2528 1.024-2.2528 2.2528-2.2528 4.5056l-1.024 2.2528-1.2288 2.4576-2.2528-1.2288-2.2528-5.7344-1.2288-4.5056z m-286.72 300.6464l-4.9152-3.6864h-1.024l-5.7344-27.4432c4.5056 1.2288 5.7344 2.4576 6.7584 5.7344z m165.888-3.4816l2.2528-12.4928 3.4816-12.4928 3.2768-4.7104 3.4816-1.024-3.4816 15.9744-3.2768 10.24a3.072 3.072 0 0 1-3.4816 3.4816zM507.392 126.1568a3.072 3.072 0 0 1-3.4816 3.4816 201.5232 201.5232 0 0 0-36.4544 4.5056h-2.4576c0-2.2528 1.2288-3.2768 3.4816-4.5056a247.6032 247.6032 0 0 1 38.912-3.4816z m19.456 0l18.2272 2.2528 20.48 2.2528c2.4576 1.2288 3.4816 2.2528 3.4816 4.5056h-10.24l-28.672-3.4816c-2.2528-2.048-2.2528-2.048-3.2768-6.5536zM428.544 163.84a22.3232 22.3232 0 0 1 13.7216 4.7104c2.2528 2.2528 2.2528 3.2768-1.2288 3.2768a16.384 16.384 0 0 1-14.7456 0l-2.4576-1.2288L422.8096 163.84h3.4816z m168.3456 6.9632l-5.7344-1.2288c-2.2528 0-3.4816-2.2528-1.2288-4.5056l10.4448-3.4816h7.9872s2.2528 0 0 3.2768 0 3.4816-3.4816 4.7104z m22.528-21.7088c3.4816 0 9.0112 3.4816 9.0112 6.7584l1.2288 10.4448c0 1.024-1.2288 2.2528-2.2528 1.024a8.3968 8.3968 0 0 1-6.9632-6.7584z m-204.8 0a22.7328 22.7328 0 0 1-3.4816 14.7456l-5.7344 4.7104-2.2528-1.2288a15.36 15.36 0 0 1 2.2528-12.4928c1.4336-3.4816 4.9152-4.7104 9.4208-5.7344z m114.2784-11.0592l30.9248 3.2768 10.24 1.2288 1.024 3.4816h-2.2528a197.632 197.632 0 0 0-37.4784-4.7104c-2.2528 0-2.2528 0-2.2528-3.2768z m-26.0096-3.8912v2.4576l-30.72 4.5056-9.0112 2.2528h-2.2528l1.2288-2.4576 11.8784-3.2768 27.4432-3.4816z m207.872 246.9888a16.9984 16.9984 0 0 1-11.4688 20.48 17.8176 17.8176 0 0 1 11.4688-20.48z m-319.8976-170.8032l-1.2288 4.5056-4.5056 7.9872-5.7344 5.7344-2.2528 1.2288-1.2288-3.4816 2.2528-9.216c2.2528-4.5056 7.9872-4.5056 11.4688-6.7584z m-73.3184 171.8272a18.6368 18.6368 0 0 1 10.4448 20.48c-6.9632 1.2288-13.7216-12.4928-10.4448-20.48z m50.3808-153.1904a10.6496 10.6496 0 0 1 1.2288 12.6976 12.0832 12.0832 0 0 1-7.9872 6.7584l-1.2288-1.024a8.192 8.192 0 0 1 1.2288-10.24l3.2768-3.4816z m75.3664-53.8624a9.8304 9.8304 0 0 1-5.7344 10.4448h-7.9872a2.8672 2.8672 0 0 1-3.2768-1.2288c0-3.4816 2.2528-4.7104 4.5056-5.7344l10.24-2.4576zM596.8896 143.36l1.024-1.2288h1.2288c3.4816 3.4816 7.9872 5.7344 10.24 10.24l1.2288 3.4816-1.2288 2.2528-3.4816 1.2288C597.9136 155.0336 596.8896 149.2992 596.8896 143.36z m45.2608 64.9216l2.4576 1.2288a13.9264 13.9264 0 0 1 11.264 14.9504l-1.024 3.2768-3.4816-2.4576-7.9872-11.4688z m-206.848-69.4272l-2.2528 12.4928a7.3728 7.3728 0 0 1-7.9872 5.7344c-2.2528 0-4.5056-2.2528-3.4816-4.5056l6.9632-9.216 4.5056-3.4816z m228.5568 89.088l8.192 7.9872a8.8064 8.8064 0 0 1 0 9.0112l-3.4816 0.8192a10.24 10.24 0 0 1-6.9632-11.4688l1.2288-6.7584z m-62.6688-40.96l-8.192-2.4576a10.24 10.24 0 0 1-3.2768-7.9872l1.024-1.024 11.4688 2.2528a6.7584 6.7584 0 0 1 4.5056 6.7584c-1.024 3.4816-3.2768 3.4816-5.5296 3.4816z m-292.864 69.2224l2.048 5.12 1.024 6.144c0 3.072-1.024 4.096-2.048 6.144h-2.048a10.4448 10.4448 0 0 1-2.048-15.36l2.048-2.048z m415.1296-2.048a12.4928 12.4928 0 0 1 0 19.456h-2.4576c-1.024-1.024-3.2768-3.4816-2.2528-5.7344a47.5136 47.5136 0 0 1 3.4816-12.4928zM310.1696 428.032a75.3664 75.3664 0 0 1 3.2768-16.1792c1.2288-2.2528 2.2528-1.024 2.2528 0l2.4576 6.9632a23.552 23.552 0 0 1-4.7104 14.7456l-1.024 1.2288-2.2528-2.2528z m409.6 0l-1.2288 4.5056-2.2528 1.2288h-1.2288a20.48 20.48 0 0 1-3.2768-18.432v-4.5056c1.2288 0 2.2528-1.024 2.2528 1.2288l4.7104 14.7456z m-380.5184-170.8032a14.5408 14.5408 0 0 1-15.9744 10.24c-2.2528 0-2.2528-2.2528-1.024-3.2768l6.7584-7.9872z m-27.0336 134.144l1.2288 4.5056-2.4576 11.4688-2.2528 2.2528c-3.2768 1.2288-4.5056 0-4.5056-2.2528v-9.216c1.2288-4.5056 4.5056-5.5296 7.9872-6.7584zM310.1696 286.72c-1.2288-8.192 9.216-14.9504 20.48-13.7216a24.7808 24.7808 0 0 1-20.48 13.7216z m409.6-1.2288a23.1424 23.1424 0 0 1-19.456-13.7216 24.576 24.576 0 0 1 12.4928 2.2528 13.312 13.312 0 0 1 6.9632 11.0592z m-27.4432-27.8528H699.2896c5.7344-1.2288 9.216 3.2768 12.4928 7.9872l-1.024 2.2528A13.7216 13.7216 0 0 1 699.2896 266.24l-4.5056-4.5056z m20.48 131.8912c6.9632 2.2528 7.9872 5.7344 7.9872 14.7456 0 1.2288 0 3.4816-2.2528 3.4816s-3.4816 0-4.5056-1.2288a20.48 20.48 0 0 1-1.2288-15.9744zM453.5296 134.144a12.6976 12.6976 0 0 1-3.4816 10.4448 8.6016 8.6016 0 0 1-7.9872 3.2768c-2.2528 0-3.4816 0-3.4816-3.2768a20.48 20.48 0 0 1 11.4688-10.4448z m125.5424 0a10.8544 10.8544 0 0 1 10.24 3.4816 12.4928 12.4928 0 0 1 3.4816 7.9872c1.024 2.2528-1.2288 2.2528-2.2528 2.2528a10.4448 10.4448 0 0 1-11.4688-10.24zM381.6448 491.52l-2.2528-5.9392 1.024-9.216a1.4336 1.4336 0 0 1 2.4576-1.2288 20.48 20.48 0 0 1 9.216 10.4448h-3.6864c-1.024 0-3.2768 0-4.5056 3.072l-1.024 2.6624z m13.7216-302.08l-7.9872-1.024-2.2528-4.096 2.2528-3.4816a16.7936 16.7936 0 0 1 14.7456 2.2528c2.4576 1.2288 1.2288 3.4816 0 4.7104z m246.784 299.4176l-3.2768-3.4816c0-2.2528-1.2288-2.2528-2.4576-1.2288l-2.2528 1.2288h-2.2528v-2.2528a20.48 20.48 0 0 1 9.216-10.4448c1.024 0 2.2528 0 3.2768 1.2288l-1.024 11.4688z m-5.5296-299.8272l-5.7344-2.2528a1.8432 1.8432 0 1 1 0-3.4816 20.48 20.48 0 0 1 13.7216-3.4816c2.2528 0 3.2768 2.4576 3.2768 4.7104s0 2.2528-3.2768 3.4816z m-313.344 122.88a13.7216 13.7216 0 0 1 2.4576 15.9744l-3.4816 2.2528c-2.2528 1.2288-3.4816 1.2288-4.7104 0v-5.7344l3.4816-5.7344zM310.1696 448.512l2.4576-1.2288 9.0112 18.432 6.9632 10.24c1.024 2.2528 1.024 2.2528-1.2288 5.7344A195.7888 195.7888 0 0 1 310.1696 448.512z m402.8416-4.5056l2.2528 2.2528a177.152 177.152 0 0 1-18.432 31.9488v-5.7344l14.9504-26.2144zM335.9744 236.9536a6.144 6.144 0 0 1 4.5056-6.7584l12.4928-2.2528h1.2288c0 7.9872-7.9872 11.264-18.2272 9.0112z m-2.4576 78.0288v-4.7104l3.4816-8.192 5.9392-6.9632c1.024-1.2288 2.2528 0 2.2528 1.2288v4.7104l-1.2288 6.9632c0 4.7104-1.024 4.7104-5.7344 2.2528z m344.064-87.04h2.4576l11.264 2.2528c3.4816 0 4.7104 2.2528 4.7104 5.7344-10.4448 3.2768-17.2032 0-18.432-7.9872z m31.744 83.3536l2.2528 7.9872 2.2528 2.4576V327.68l-3.4816 1.2288a4.5056 4.5056 0 0 1-4.5056-2.4576 12.0832 12.0832 0 0 1 2.2528-14.7456z m-13.1072 2.2528l-3.2768-3.2768-2.4576-1.2288c-2.2528 2.2528-4.5056 1.2288-4.5056-1.024l-1.024-11.4688 1.024-3.4816 2.2528 2.2528c5.7344 3.4816 5.7344 9.216 7.9872 14.9504z m10.6496-92.5696l1.2288 6.9632v2.2528c2.2528 1.2288 2.2528 2.2528 0 4.5056l-4.5056 5.7344-3.4816-1.024a18.0224 18.0224 0 0 1 6.7584-18.432zM334.5408 432.7424a53.248 53.248 0 0 1 9.216 5.7344c2.2528 1.024 2.2528 2.2528 2.2528 5.7344l-2.2528 3.2768c-1.2288 2.2528-3.4816 3.4816-4.5056 0l-5.7344-11.4688v-3.2768z m-30.72-11.6736h-10.24c-3.2768-3.4816-6.7584-5.7344-7.9872-9.216a13.5168 13.5168 0 0 1 18.2272 9.216z m392.3968 10.24v4.7104l-5.7344 10.24c0 2.2528-3.2768 2.2528-4.5056 0s-3.4816-7.9872 2.2528-10.24l4.7104-3.4816 3.2768-2.2528zM502.8864 143.36c1.024 2.2528 0 3.4816-2.4576 3.4816l-30.72 4.5056c-2.2528 0-3.4816 0-3.4816-2.2528A175.7184 175.7184 0 0 1 502.8864 143.36z m-175.3088 77.6192l2.2528 2.4576a15.36 15.36 0 0 1 3.4816 13.7216c0 3.2768-3.4816 5.5296-4.5056 3.2768l-3.4816-3.2768c0-2.4576-1.2288-4.7104 1.2288-5.7344v-5.7344z m395.8784 200.0896c0-7.9872 9.0112-11.4688 20.48-9.216l-3.4816 4.5056-5.7344 4.7104z m-389.12-30.9248a16.1792 16.1792 0 0 1-3.6864-19.456c0-2.2528 3.4816-2.2528 3.4816 0a16.9984 16.9984 0 0 1 2.2528 12.6976z m321.3312-149.7088l-6.7584-3.4816-4.7104-7.9872h5.7344a8.8064 8.8064 0 0 1 9.216 6.7584 6.5536 6.5536 0 0 1-4.096 4.7104z m-269.9264-11.4688h4.5056c2.2528 0 2.2528 0 1.2288 2.2528-2.4576 4.5056-4.7104 9.216-11.4688 10.24-2.2528 0-3.4816-1.024-3.4816-3.2768a8.192 8.192 0 0 1 8.6016-9.216z m-40.96 40.96l2.2528 3.4816-1.2288 2.2528-2.2528 5.7344c-1.024 2.2528-5.7344 4.7104-7.9872 3.4816s-2.2528-2.2528 0-3.4816a15.1552 15.1552 0 0 1 8.3968-11.264zM530.1248 143.36a201.9328 201.9328 0 0 1 37.888 5.7344c0 2.2528-1.2288 2.2528-3.4816 2.2528l-30.9248-4.5056a3.072 3.072 0 0 1-3.4816-3.4816zM351.1296 432.7424v-1.4336c0 2.2528 0 4.7104-2.6624 4.7104s-5.7344-2.4576-6.7584-4.7104a8.3968 8.3968 0 0 1 3.4816-7.9872v-4.5056l3.4816 1.024 3.4816 12.9024zM433.0496 512a7.3728 7.3728 0 0 1 5.5296 6.9632l4.7104 19.456c-3.4816 0-4.7104-1.2288-5.7344-4.5056l-4.5056-19.0464z m253.7472-242.8928a14.9504 14.9504 0 0 1 10.24 10.24 2.8672 2.8672 0 0 1-2.2528 4.5056c-4.5056 0-6.7584 0-6.7584-4.5056l-1.2288-2.2528-2.2528-3.4816z m7.9872 118.784l-3.4816-10.24 2.4576-7.9872 2.2528-2.2528 2.2528 2.2528a17.6128 17.6128 0 0 1-3.4816 18.2272z m-20.48 38.912l3.4816-9.216 2.2528-1.024 2.2528 2.2528 1.2288 3.4816a7.7824 7.7824 0 0 1-5.7344 11.264l-2.2528-1.024z m-78.848 81.92L589.7216 532.48l-4.7104 3.4816V532.48l5.7344-20.48c0-3.4816 3.4816-2.2528 4.7104-3.4816z m66.7648-26.0096a12.4928 12.4928 0 0 1-7.9872 11.4688l-5.7344-1.024V491.52l3.4816-4.5056 6.7584-5.7344 2.2528-1.024zM371.6096 497.664l-2.2528-2.2528a11.4688 11.4688 0 0 1-6.7584-11.4688c0-1.2288 2.2528-2.2528 3.2768-1.2288l9.216 7.9872 1.2288 4.7104z m-50.176-192.1024l1.024-4.5056 6.9632-6.7584c0-2.4576 2.2528-1.2288 3.4816 0a11.8784 11.8784 0 0 1-1.2288 9.0112L330.6496 307.2l-1.2288 1.024-1.4336-1.024c-1.2288-1.6384-2.2528-1.6384-5.7344-1.6384z m384.4096-1.024c-2.4576-1.2288-4.7104 0-4.7104 2.2528L699.2896 307.2v-1.6384l-2.4576-3.2768v-9.216l2.4576-1.2288 6.7584 7.9872z" fill="#D48931" p-id="4832"></path><path d="M377.1392 247.3984a8.192 8.192 0 0 1-3.4816 6.7584l-9.216 4.7104c-2.2528 0-3.2768-1.2288-2.2528-3.4816a13.1072 13.1072 0 0 1 14.9504-7.9872zM656.6912 245.76a15.7696 15.7696 0 0 1 10.4448 6.9632v3.2768l-3.4816 1.2288a17.408 17.408 0 0 1-10.24-7.9872c-1.2288-1.8432-1.2288-3.4816 3.2768-3.4816z m-31.5392 252.5184l2.2528-4.5056 6.7584-3.4816c3.4816-1.024 4.7104 0 3.4816 3.4816l-3.4816 9.216h-2.2528c-2.2528-2.4576-3.4816-4.7104-6.7584-4.7104z m-227.328 0c-3.4816 0-4.5056 2.2528-6.7584 4.7104h-2.4576l-3.2768-10.4448c-1.2288-2.2528 0-3.2768 3.2768-2.2528l6.9632 4.7104 2.2528 2.2528zM345.1904 245.76l-1.2288 1.2288-2.2528 2.2528c-4.5056 6.9632-10.24 4.5056-15.9744 5.7344l2.2528-5.7344 2.6624-1.4336a7.7824 7.7824 0 0 1 6.7584-2.4576h2.4576l4.5056-1.024z m357.5808 5.3248h-11.4688l-6.7584-9.6256v-1.2288l2.2528 4.9152h5.7344l3.4816-2.6624 4.5056 2.4576c2.2528 0.8192 2.2528 2.4576 2.2528 5.7344z m-384 191.6928c4.5056 7.9872 9.0112 15.9744 13.7216 23.9616a5.3248 5.3248 0 0 1-1.2288 6.9632l-14.7456-28.672z m15.9744-219.3408l2.2528-8.192 3.4816-9.0112 1.2288-1.2288 2.2528 1.2288c2.2528 5.7344-1.2288 10.24-3.4816 15.9744l-4.5056 2.2528z m52.6336-50.3808a23.552 23.552 0 0 1 5.7344-12.4928c2.2528-2.4576 3.4816-1.2288 4.5056 2.2528a12.9024 12.9024 0 0 1-6.7584 12.4928c-2.4576 1.2288-3.4816 0-3.4816-2.2528z m258.2528 0c0 2.2528-1.024 2.2528-2.2528 2.2528l-1.2288-1.024a10.8544 10.8544 0 0 1-5.5296-13.7216c0-2.4576 0-2.4576 2.2528-1.2288l4.5056 5.7344z m64.3072 267.4688h2.4576L696.2176 471.04v-5.7344l12.6976-21.7088z m-43.6224-220.5696a16.5888 16.5888 0 0 1 14.7456-3.4816l4.5056 4.5056c0 2.4576 0 3.4816-2.2528 3.4816l-7.9872-1.024z m30.72 0l-2.2528 3.4816-4.5056-2.4576-2.2528-10.24c-1.2288-2.2528 0-3.2768 0-5.7344h2.2528z m-276.48-40.96l-2.2528 1.2288h-11.4688l-3.4816-2.2528-1.2288-2.2528 3.4816-2.2528 11.4688 1.2288 4.5056 2.2528z m-54.8864 43.4176c-5.7344 1.2288-10.24 5.7344-17.2032 3.4816-2.2528 0-3.4816-1.024-2.2528-2.2528l4.5056-4.5056a18.432 18.432 0 0 1 14.9504 1.8432z m89.088-60.0064a10.4448 10.4448 0 0 1-7.9872-3.4816c-2.2528-1.024-2.2528-3.4816-1.024-5.7344h2.2528a97.8944 97.8944 0 0 1 12.4928 5.7344l1.2288 1.2288h-1.2288z m-114.4832 233.472a16.5888 16.5888 0 0 1-2.2528 17.2032l-4.5056-5.7344v-2.2528c0-3.4816 3.4816-6.9632 6.7584-9.216zM612.4544 177.5616a7.5776 7.5776 0 0 1 6.9632-4.5056l6.7584-1.2288c2.2528 0 4.7104 1.2288 4.7104 3.4816l-3.4816 3.4816a24.1664 24.1664 0 0 1-14.9504-1.2288z m-40.96-18.2272l1.2288-1.2288 12.4928-6.7584 3.4816 1.2288c0 2.2528 1.2288 4.5056-1.024 5.5296a19.2512 19.2512 0 0 1-16.384 1.2288z m117.5552 251.4944a13.9264 13.9264 0 0 1 0-17.2032c6.9632 5.7344 6.9632 11.4688 0 17.2032zM469.7088 157.0816l30.72-4.5056c1.2288 2.2528 0 3.2768-2.2528 3.2768L474.0096 159.3344c-2.048 0-3.2768 0-4.3008-2.2528z m-135.9872 267.4688l-9.216-4.7104c-2.2528-3.2768-1.2288-6.7584-2.2528-10.24a13.9264 13.9264 0 0 1 11.4688 14.9504z m329.1136-245.76l2.2528-3.2768 20.48 18.2272-2.2528 2.2528z m-99.5328-22.9376c0 3.4816-2.2528 3.4816-3.2768 3.4816L535.4496 155.8528c-2.2528-1.024-2.2528 0-2.2528-4.5056z m129.2288 266.24a13.9264 13.9264 0 0 1 12.4928-14.9504c-1.024 3.4816 0 6.9632-3.2768 10.24z m-324.608-245.76l2.2528 3.2768-20.48 18.432-2.2528-2.2528z m-70.8608 97.0752a4.9152 4.9152 0 0 1 4.5056 4.5056l2.2528 9.216c0 2.2528 0 3.4816-3.2768 2.2528s-4.7104-3.2768-4.7104-5.7344z m434.3808 1.024v12.288l-5.7344 4.5056h-1.2288a14.1312 14.1312 0 0 1 5.7344-14.9504zM453.5296 193.536h-3.4816l-3.4816-1.2288c-2.2528 0-3.4816 0-3.4816-2.2528s1.2288-2.2528 2.4576-2.2528a12.0832 12.0832 0 0 1 12.4928 1.2288c1.024 1.024 1.024 4.5056-1.2288 4.5056z m124.5184 0h-3.4816c-1.024-1.2288-2.2528-3.4816 0-4.5056a12.0832 12.0832 0 0 1 12.6976-1.2288l2.2528 2.2528-2.2528 2.2528z m-208.896 25.6l-2.4576-2.2528 20.48-18.2272h3.4816z m-13.7216 63.6928l-1.024 6.7584c0 2.2528-4.7104 3.4816-6.9632 1.2288l-2.2528-2.2528V286.72l2.2528-2.4576a6.3488 6.3488 0 0 1 5.7344-3.2768c2.2528-1.6384 3.4816-0.4096 2.2528 1.8432z m317.44 3.4816v-2.4576l2.4576-3.2768c0-1.2288 1.2288-2.4576 2.2528-1.2288s6.9632 2.2528 6.9632 5.7344V286.72l-1.2288 2.2528-3.2768 1.2288c-1.2288-0.6144-4.7104-0.6144-7.168-3.4816z m-188.416-114.4832c-1.024-3.2768-3.2768-3.2768-6.7584-2.4576H474.0096v-3.072c3.6864-1.2288 7.168-4.7104 10.4448-2.8672h5.7344l-2.2528 4.5056z m181.8624 43.8272l-3.4816 2.4576-20.48-20.48h4.7104z m-197.8368-34.6112l-3.4816-1.2288c-2.2528 0 0-2.2528 0-3.2768l3.4816-4.7104c2.2528-2.2528 4.5056-2.2528 6.7584 1.2288l1.2288 2.2528c1.024 1.2288 1.024 2.2528-1.2288 3.4816l-3.4816 2.2528z m80.0768-7.168l-4.7104-6.7584c-2.2528-1.2288-1.024-2.2528 1.2288-3.4816l9.216 1.2288 3.2768 2.2528 1.2288 2.2528h-1.2288l-4.5056 1.024c-2.2528 0-4.5056 1.2288-4.5056 3.4816z m14.7456 7.168l-5.7344-2.2528v-1.2288l4.5056-5.7344a2.8672 2.8672 0 0 1 4.5056 1.2288l3.4816 3.4816c1.2288 2.2528 0 3.2768-2.2528 4.5056zM355.4304 204.8l-2.4576-2.2528 18.6368-16.9984 2.4576 2.4576z m26.2144-12.4928l-19.456 18.2272-2.2528-2.2528 10.24-9.216 6.9632-5.7344a2.6624 2.6624 0 0 1 4.5056-0.8192z m21.7088 23.552l-2.2528 4.7104-4.5056 5.7344a1.4336 1.4336 0 0 1-2.4576-1.024c0-2.2528-1.024-3.4816-3.2768-3.4816l-1.2288-1.024 1.2288-1.2288 10.24-3.4816z m2.2528-4.096l2.2528-2.2528a10.8544 10.8544 0 0 1 11.4688-2.4576l1.2288 2.4576-4.7104 4.5056h-6.7584l-1.2288-1.2288zM658.3296 188.0064l2.2528-3.6864 18.2272 17.2032-2.2528 2.2528z m-27.4432 28.2624l10.24 3.4816 1.024 2.2528h-1.024A3.072 3.072 0 0 0 637.8496 225.28c0 2.2528 0 2.2528-2.2528 1.024l-6.9632-7.9872c-0.2048-2.048 1.024-2.048 2.2528-2.048z m-14.9504-11.4688l7.9872 2.4576c2.2528 1.024 2.2528 3.2768 0 4.5056a2.6624 2.6624 0 0 1-4.5056 0c-3.4816 0-6.9632-2.2528-6.9632-5.5296l1.2288-2.4576z m53.6576 5.3248l-18.2272-17.2032c1.2288-1.2288 2.2528-2.2528 4.5056 0l14.9504 13.7216h1.2288zM462.1312 170.3936l-6.7584 8.192c-2.2528 2.2528-3.4816 0-3.4816-1.2288l-2.2528-3.4816a2.8672 2.8672 0 0 1 2.2528-4.5056h10.24z m-92.9792 296.3456c5.7344 2.2528 5.7344 6.9632 6.7584 11.4688s-1.024 3.4816-3.4816 2.2528-5.7344-3.4816-4.5056-7.9872z m287.9488-2.2528L658.3296 471.04a7.3728 7.3728 0 0 1-6.9632 6.7584l-2.2528-3.4816a12.4928 12.4928 0 0 1 7.9872-9.8304zM571.2896 169.3696h10.4448a2.2528 2.2528 0 0 1 2.2528 3.4816l-2.2528 7.9872h-2.4576l-6.7584-9.216z m-167.7312 344.8832l-2.2528-2.2528-3.4816-5.7344v-3.2768h3.4816l6.7584 5.7344c2.4576 2.2528 1.2288 3.2768-1.024 4.5056zM699.2896 436.0192l3.4816 2.2528-13.7216 22.7328c0-2.2528-2.2528-3.2768 0-5.7344l10.24-16.9984z m-374.784 4.5056l2.2528-2.2528 1.2288 3.2768 9.0112 17.2032c1.2288 1.2288 1.2288 3.4816-1.024 5.7344zM619.008 512h-4.7104v-2.2528c0-3.4816 6.9632-7.9872 9.216-7.9872l2.2528 2.2528-4.5056 7.9872z m-184.32-317.6448l2.2528 1.2288c3.4816 0 3.4816 3.2768 1.2288 4.5056s-5.7344 3.4816-10.24 2.2528l-2.2528-2.2528c-1.2288-1.2288 0-2.2528 2.2528-3.4816z m165.888 7.9872l-8.192-3.4816c0-1.024 0-3.2768 1.2288-3.2768l5.7344-1.2288 4.5056 2.2528 2.2528 2.2528-2.2528 2.4576zM385.1264 497.0496c1.024 3.4816 4.5056 5.7344 5.7344 10.24-2.4576 1.2288-4.7104 1.2288-5.7344-1.024l-5.7344-4.7104-1.2288-3.2768 3.4816-1.2288z m25.6-301.056l-1.2288-1.2288v-3.4816l11.4688-5.7344c1.2288-1.024 2.2528-1.024 3.4816 1.2288l-1.2288 2.2528a15.9744 15.9744 0 0 0-9.0112 5.7344z m223.4368 17.6128l-6.9632-3.4816-1.2288-5.3248h9.216l3.4816 2.4576-2.2528 2.2528c-2.2528 0.6144-2.2528 0.6144-2.2528 4.096zM617.3696 517.12a10.0352 10.0352 0 0 1-9.0112 5.7344c-1.2288 0-2.4576 0-2.4576-2.2528l1.2288-3.4816c0-2.2528 2.2528-3.4816 5.7344-2.2528z m15.9744-9.8304c0-4.5056 4.7104-6.7584 5.7344-10.24h4.7104l2.2528 1.2288-1.2288 3.2768-5.7344 4.7104c-0.2048 2.2528-2.4576 2.2528-4.9152 1.024z m-235.7248-296.96c1.2288 0 0-1.8432-1.024-3.072L394.1376 204.8h12.6976c0 2.8672 0 4.096-3.4816 5.3248h-3.4816z m6.3488 310.272l5.7344-2.4576c2.2528-1.024 4.5056 0 5.7344 3.4816v4.5056c-2.2528 1.2288-4.5056 0-6.9632-1.024l-2.2528-2.2528z m329.728-93.7984l-4.5056 9.216c-1.2288 2.2528-3.4816 1.024-4.7104 0s-2.2528-1.2288-3.4816-3.4816l1.2288-1.2288 5.7344-1.2288zM624.9472 195.9936l-3.4816-2.4576a10.24 10.24 0 0 0-7.9872-4.5056 3.072 3.072 0 0 1-2.2528-3.4816l3.4816-1.2288 11.264 6.7584v2.2528zM292.5568 430.08l10.24 3.4816 3.4816 2.2528-3.4816 3.4816c-2.2528 2.2528-4.5056 2.2528-5.7344-1.2288z m109.568 61.44l4.7104 2.2528 3.4816 6.7584-1.2288 2.4576h-2.2528l-4.7104-5.7344v-4.7104z m221.7984 0c0 2.4576 0 4.7104-2.2528 5.7344l-3.4816 4.7104-2.2528 1.024-1.2288-2.2528c-1.024-2.2528 3.4816-9.216 6.9632-9.216zM413.5936 201.728l2.2528-3.4816 2.4576-2.2528c0-2.4576 4.5056-3.4816 5.5296-2.4576l1.2288 2.4576-3.4816 4.5056a9.4208 9.4208 0 0 1-7.9872 1.2288z m204.8-1.2288a4.9152 4.9152 0 0 1-6.7584-1.2288l-3.4816-4.5056 1.2288-2.2528a3.8912 3.8912 0 0 1 5.5296 2.2528l2.4576 3.4816z m-139.4688-12.4928l-2.2528-1.2288 1.024-2.4576 2.2528-3.4816h3.4816c1.024 1.2288 2.2528 2.2528 1.024 3.4816z m75.5712-1.2288L549.5808 184.32c-1.024 0-2.2528-1.2288 0-3.4816h3.4816L555.9296 184.32l1.2288 2.2528zM314.2656 337.7152c2.2528 1.024 4.5056 0 3.2768 3.2768v1.2288c-3.2768-1.2288-3.2768-2.2528-3.2768-4.5056z m401.2032-2.4576c-1.2288 2.4576 0 4.7104-2.4576 4.7104l-2.2528-1.2288c0-2.2528 2.2528-2.2528 4.7104-3.4816z m-134.9632 180.6336c-1.2288 3.4816-4.5056 3.4816-5.7344 4.7104-1.024-2.4576 0-2.4576 5.7344-4.7104z m-130.2528 7.9872c-2.2528 0-5.7344 0-5.7344-4.5056 2.2528 1.2288 4.5056 1.2288 5.7344 4.5056z m-5.7344 1.2288c1.2288 2.2528 4.5056 1.024 5.7344 4.5056a5.12 5.12 0 0 1-5.7344-4.5056z m4.5056 17.2032c-2.2528-1.2288-4.5056-1.2288-4.5056-4.7104 1.2288 1.2288 4.5056 1.2288 4.5056 4.7104z m125.7472-9.8304c0-3.4816 3.4816-3.4816 5.7344-4.5056 0 2.8672-1.2288 2.8672-5.7344 4.5056z m5.7344-10.24c-1.2288 3.2768-3.4816 2.2528-5.7344 3.2768 0-1.6384 3.4816-1.6384 5.7344-2.6624z m-131.4816 12.4928c-2.2528-1.024-4.5056 0-4.5056-3.4816 1.2288 1.2288 4.5056 1.2288 4.5056 4.096z m125.7472 3.4816c0-3.4816 3.4816-3.4816 5.7344-4.5056-1.2288 3.8912-4.096 3.8912-5.7344 5.12z m-53.6576 17.2032a10.24 10.24 0 0 1-10.24 10.24 10.6496 10.6496 0 0 1-11.4688-10.24 11.4688 11.4688 0 0 1 11.4688-11.4688 10.4448 10.4448 0 0 1 10.24 12.0832z" fill="#D48931" p-id="4833"></path><path d="M431.2064 450.56c2.048 0 4.096 0 5.3248-2.048s4.096-5.3248 3.072-8.6016 0-5.12-3.072-6.3488a5.7344 5.7344 0 0 1-4.3008-6.3488h3.072c3.4816 0 3.4816 0 4.7104-3.4816l-4.7104-8.192h3.4816c1.2288 1.2288 3.4816 0 3.4816-2.2528l3.4816-14.1312 1.2288-3.4816 3.4816 2.2528s4.3008 3.4816 6.5536-5.3248h106.2912c2.2528 7.5776 4.7104 7.5776 5.7344 5.3248h3.6864l1.2288 1.2288 2.2528 12.288c1.024 4.5056 1.024 5.7344 6.5536 4.5056l1.2288 1.2288-4.5056 5.5296v2.2528c0 1.2288 0 2.2528 3.2768 2.2528h7.7824a8.6016 8.6016 0 0 1-6.7584 7.9872l-2.048 2.2528a13.5168 13.5168 0 0 0 4.3008 12.288l4.9152 1.024h44.2368l4.7104 2.4576 4.7104 10.24 1.2288-2.2528a160.5632 160.5632 0 0 0 25.1904-178.7904 169.3696 169.3696 0 0 0-141.1072-90.112h-20.48a173.8752 173.8752 0 0 0-131.2768 58.1632 161.1776 161.1776 0 0 0-40.96 113.8688 164.864 164.864 0 0 0 34.6112 94.6176l2.4576 2.2528 3.4816-9.0112c1.2288-2.4576 2.4576-2.4576 3.4816-2.4576z m180.224 40.96h-202.3424a237.3632 237.3632 0 0 0 22.9376 13.312l19.2512 10.4448 17.2032 4.5056 1.2288-1.2288-4.7104-6.5536 9.216-6.7584 3.4816 5.7344 7.9872-4.5056-3.4816-5.7344 9.216-4.7104 3.2768 4.7104a1.4336 1.4336 0 0 0 2.4576 1.024l5.7344-1.024v-4.096H514.9696v4.096l8.3968 1.024 2.2528-1.024 2.2528-4.7104 10.4448 4.7104-3.4816 5.7344 6.7584 4.5056 4.7104-5.7344 7.9872 6.7584-3.4816 5.7344 1.2288 1.2288 16.9984-4.5056-1.024-2.4576a230.4 230.4 0 0 0 43.4176-20.48z" fill="#DB0303" p-id="4834"></path><path d="M480.5632 293.2736l2.2528-7.5776 6.7584-23.1424c1.2288-1.024 1.2288-2.048-1.024-3.2768l-23.9616-17.408-1.2288-2.2528H494.4896c2.2528 0 2.2528 0 3.4816-2.2528l10.24-28.4672v-1.2288l3.4816 7.7824 7.9872 21.9136c0 2.2528 1.024 2.2528 2.2528 2.2528H555.9296v1.024l-2.4576 1.2288-23.9616 17.408c-1.024 1.2288-2.2528 2.2528-1.024 4.5056l9.0112 26.2144 1.2288 3.2768-6.7584-4.3008-20.48-14.336h-4.7104z m-58.9824-32.1536c3.8912 5.12 7.7824 10.6496 11.4688 15.9744l15.9744-2.2528-4.5056 4.5056-6.9632 7.9872s-2.2528 1.2288 0 3.4816l6.7584 14.7456-6.7584-3.2768-6.9632-4.7104c-2.2528 0-3.2768 0-4.5056 1.2288l-10.24 9.216-1.2288 1.024 2.2528-14.7456c0-2.4576 0-3.4816-2.2528-4.7104l-13.7216-6.7584 15.9744-3.4816c2.4576 0 2.4576 0 3.4816-2.2528zM582.7584 307.2l6.9632-14.9504-1.2288-3.4816-9.216-10.24-2.8672-0.4096 17.2032 2.4576 2.2528-2.4576 7.9872-14.7456 1.2288 4.5056 1.024 11.4688 3.4816 3.4816h12.6976l3.2768 1.2288-13.7216 6.7584c-2.2528 1.2288-2.2528 2.4576-2.2528 4.7104l2.2528 15.9744-7.9872-7.9872-3.2768-3.4816-3.6864-0.2048z m-79.6672 34.6112l-13.9264 1.2288c-4.7104 0-4.7104 0-5.9392 4.5056l-3.4816 13.7216-5.7344-11.8784a5.7344 5.7344 0 0 0-5.9392-3.4816h-12.6976l3.4816-2.2528 7.7824-6.9632 1.2288-3.2768-5.7344-13.7216v-2.2528l13.5168 9.0112c1.2288 1.2288 2.2528 1.2288 3.4816-1.024l12.288-9.216v3.4816l-3.4816 12.4928 1.2288 2.2528 11.6736 7.9872z m43.4176-26.624l7.9872 11.264c2.2528 3.4816 2.2528 3.4816 6.7584 2.4576l13.7216-3.4816-7.9872 10.24c-3.4816 4.5056-3.4816 4.5056 0 9.216l6.9632 11.4688-19.456-4.7104-10.4448 12.6976v-7.9872l1.2288-8.192c0-2.2528-1.2288-2.2528-2.2528-3.2768l-15.9744-5.7344c5.9392-2.6624 12.0832-5.5296 18.2272-7.9872z" fill="#FFD400" p-id="4835"></path><path d="M570.2656 517.5296l-2.2528-3.4816a226.7136 226.7136 0 0 0 43.4176-22.528h-202.3424l22.9376 14.9504 23.9616 11.4688-1.2288 3.4816-1.2288-1.6384a171.4176 171.4176 0 0 1 27.4432-327.68 169.1648 169.1648 0 0 1 202.1376 127.7952c0 2.048 0 4.096 1.2288 5.9392a170.8032 170.8032 0 0 1-44.4416 147.456 173.4656 173.4656 0 0 1-69.632 44.2368z m70.4512-54.6816l1.024-1.2288a166.7072 166.7072 0 0 0 22.7328-178.7904 159.9488 159.9488 0 0 0-132.7104-90.112h-19.2512l-30.5152 2.2528a167.936 167.936 0 0 0-133.9392 168.7552 171.008 171.008 0 0 0 32.9728 95.6416l2.2528 1.2288 3.2768-9.216 3.4816-0.8192H433.0496a6.3488 6.3488 0 0 0 5.7344-3.2768 10.24 10.24 0 0 0 3.2768-7.9872c0-3.4816 0-5.7344-3.2768-7.9872a6.5536 6.5536 0 0 1-5.7344-7.3728l5.7344 1.2288c3.4816 0 3.4816 0 4.5056-3.4816l-4.5056-7.9872v-1.8432l2.2528 1.2288c1.2288 0 3.4816 0 3.4816-2.2528l3.4816-13.7216 1.024-3.4816 2.2528 2.2528 1.2288 1.2288c1.2288 2.2528 2.2528 2.2528 4.5056 0h106.2912c2.2528 1.8432 4.7104 1.8432 4.7104-1.6384h2.2528l2.2528-1.2288 1.2288 2.2528 2.2528 11.4688c1.024 5.7344 6.7584 1.8432 6.7584 1.8432h1.2288l-4.7104 9.6256-1.024 2.2528c1.024 1.2288 1.024 3.4816 3.4816 5.7344h7.9872a40.96 40.96 0 0 1-6.9632 5.7344l-2.2528 1.024a36.4544 36.4544 0 0 0 4.5056 12.6976v1.6384c1.2288 2.2528 2.4576 2.2528 4.7104 2.2528h41.984c2.2528 0 3.2768 0 3.2768 2.4576z m-237.3632 16.5888a17.8176 17.8176 0 0 0 5.7344 5.9392h203.3664a10.24 10.24 0 0 0 4.7104-5.9392z m171.4176-58.368c-1.024-1.2288-1.024-2.2528-3.4816-5.9392h-121.0368c-2.2528 3.6864-3.4816 4.7104-3.4816 5.9392z m-55.9104 52.6336c0-4.7104 2.2528-10.24-3.4816-13.7216a10.4448 10.4448 0 0 0-12.4928 1.024c-4.7104 3.4816-3.4816 7.9872-3.4816 12.6976z m7.7824-40.96h-29.2864v6.7584l29.2864 1.2288z m-45.4656 40.96c0-4.7104 0-9.216-4.7104-11.4688-2.2528-2.2528-5.7344-1.2288-9.0112 1.2288s-3.4816 6.7584-2.4576 10.24z m75.3664 0c0-4.7104 0-9.216-3.4816-11.4688a10.6496 10.6496 0 0 0-10.24 0c-3.4816 3.4816-2.2528 7.9872-2.2528 11.4688z m20.48-17.6128l-3.2768-4.5056c0-1.2288-1.2288-3.4816-2.2528-2.2528l-3.4816 2.2528c0 1.024 0 3.2768-2.2528 3.2768l-1.2288 2.4576c3.4816 0 3.4816 2.2528 3.4816 4.5056v6.7584c0 4.7104 0 4.7104 4.5056 4.7104l1.2288-12.6976 2.2528-4.5056z m10.8544 17.6128a7.3728 7.3728 0 0 0-2.4576-9.216l-6.7584 1.2288c-3.4816 1.024-3.4816 4.5056-2.2528 7.9872zM455.9872 450.56H453.5296s-2.4576 1.8432-2.4576 2.8672v5.7344l5.9392 7.9872v6.9632l-3.8912 2.2528 3.8912-3.4816v-3.8912a7.9872 7.9872 0 0 1 0-10.24l1.024-2.2528z m-10.24 23.552a5.7344 5.7344 0 0 0-3.4816-5.9392h-6.9632a9.8304 9.8304 0 0 0-2.2528 5.9392z m133.5296-40.96h-11.6736v5.7344h11.6736z m-134.7584 11.6736h11.8784v-5.9392h-6.144c-6.9632-3.6864-6.9632-3.6864-6.9632 3.072z m116.5312-11.6736h-6.7584l1.6384 3.2768v2.4576h4.096z m-87.04 0v5.7344h5.7344v-5.7344z m11.6736 5.7344h5.7344v-5.7344h-5.7344z m58.368 0h5.9392v-5.7344h-5.9392z m-11.6736-5.7344v5.7344h5.9392v-5.7344z m-64.3072 0h-5.9392v5.7344h5.9392z" fill="#D48931" p-id="4836"></path><path d="M549.9904 432.7424h-5.9392v8.8064l5.9392 1.2288z m-23.3472 0h-29.2864v6.7584l29.2864 1.2288z m11.6736 5.7344v-5.7344h-5.9392v5.7344z m31.9488-23.3472h-120.0128c-2.2528 3.6864-3.4816 4.7104-3.4816 5.9392h126.976c0-1.2288 0-2.2528-3.4816-5.9392zM514.9696 459.9808a10.4448 10.4448 0 0 0-12.4928 1.024c-4.7104 3.4816-3.4816 7.9872-3.4816 12.6976h20.48c-0.6144-4.7104 1.6384-10.24-4.5056-13.7216z m36.6592 2.2528c-2.4576-2.2528-5.7344-1.2288-9.216 0s-2.2528 7.9872-2.2528 11.4688H555.9296c0-4.7104 0-9.216-3.8912-11.4688z m-143.36 23.1424h203.3664a10.24 10.24 0 0 0 4.7104-5.9392h-212.992a17.8176 17.8176 0 0 0 5.7344 5.9392z m158.5152-16.384c0 4.7104 0 4.7104 3.4816 4.7104h1.2288l1.024-12.9024 2.4576-4.7104H576.4096l-3.072-5.5296c-1.024-1.2288-1.024-3.4816-2.2528-2.2528l-3.4816 2.2528c0 1.2288 0 3.4816-2.4576 3.4816l-1.024 2.4576c3.4816 0 3.4816 2.2528 3.4816 4.7104z m0-30.5152h11.6736v-5.7344h-11.6736z m9.6256 35.2256h11.4688c0-3.4816 0-6.9632-3.4816-9.216l-5.7344 1.2288c-3.8912 2.2528-3.8912 5.3248-2.2528 7.9872z m-14.9504-40.96h-6.7584l1.6384 3.2768v2.4576h4.096z m-69.632 5.7344v-5.7344h-5.7344v5.7344z m-48.128 3.072l1.2288 2.8672h11.8784v-5.9392h-7.3728c-6.144-3.6864-6.144-3.6864-6.144 3.072z m-7.9872 26.2144a7.9872 7.9872 0 0 0-2.2528 5.9392h12.6976a5.7344 5.7344 0 0 0-3.4816-5.9392z m21.7088-11.264l-2.6624-5.9392c-2.4576 0-2.4576 1.8432-3.2768 2.8672v2.2528l-1.4336 3.4816 1.2288 7.9872 1.024 6.9632 1.2288 2.2528 3.8912-3.4816v-3.8912a7.9872 7.9872 0 0 1 0-10.24z m11.0592-23.7568h-5.9392v5.7344h5.9392z m13.1072 40.96c0-4.7104 0-9.216-4.7104-11.4688-2.2528-2.2528-5.7344-1.2288-9.0112 1.2288s-3.4816 6.7584-2.4576 10.24z m-1.4336-40.96H474.0096v5.7344h5.7344z" fill="#EF9C48" p-id="4837"></path></svg>